<svg xmlns="http://www.w3.org/2000/svg" width="136" height="102" viewBox="0 0 136 102">
    <path d="M121.179,78.7C123.444,78.7 125.279,76.865 125.279,74.6C125.279,72.336 123.444,70.5 121.179,70.5C118.915,70.5 117.079,72.336 117.079,74.6C117.079,76.865 118.915,78.7 121.179,78.7Z" fill="#E6F4FC"/>
    <path d="M113.306,90.139C114.852,90.139 116.106,88.886 116.106,87.339C116.106,85.793 114.852,84.539 113.306,84.539C111.759,84.539 110.506,85.793 110.506,87.339C110.506,88.886 111.759,90.139 113.306,90.139Z" fill="#E6F4FC"/>
    <path d="M22.579,21.7C24.126,21.7 25.379,20.447 25.379,18.9C25.379,17.354 24.126,16.1 22.579,16.1C21.033,16.1 19.779,17.354 19.779,18.9C19.779,20.447 21.033,21.7 22.579,21.7Z" fill="#E6F4FC"/>
    <path d="M5.479,75.7C8.351,75.7 10.679,73.372 10.679,70.5C10.679,67.628 8.351,65.3 5.479,65.3C2.607,65.3 0.279,67.628 0.279,70.5C0.279,73.372 2.607,75.7 5.479,75.7Z" fill="#E6F4FC"/>
    <path d="M68.629,101.8C96.629,101.8 119.329,79.1 119.329,51C119.329,22.9 96.629,0.2 68.629,0.2C40.629,0.2 17.929,22.9 17.929,51C17.929,79.1 40.629,101.8 68.629,101.8Z" fill="#E6F4FC"/>
    <path d="M98.073,7.836C99.581,7.836 100.857,8.99 100.857,10.606V92.333C100.857,93.833 99.697,95.103 98.073,95.103H37.635C36.127,95.103 34.851,93.949 34.851,92.333V10.606C34.851,9.105 36.011,7.836 37.635,7.836H98.073Z" fill="#0092DB"/>
    <path d="M100.857,16.378V92.217C100.857,93.718 99.697,94.988 98.073,94.988H42.855L37.983,90.139L92.853,14.993L97.609,13.261L100.857,16.378Z" fill="#0173AD"/>
    <path d="M97.841,14.184C97.841,13.723 97.493,13.261 96.913,13.261H38.911C38.447,13.261 37.983,13.607 37.983,14.184V89.216C37.983,89.678 38.331,90.139 38.911,90.139H96.797C97.261,90.139 97.725,89.793 97.725,89.216L97.841,14.184Z" fill="#E9EAEA"/>
    <path d="M97.841,14.184C97.841,13.723 97.493,13.261 96.913,13.261H38.911C38.447,13.261 37.983,13.607 37.983,14.184C38.679,44.082 38.911,77.904 35.663,86.676L91.229,85.868C94.593,70.631 97.145,43.274 97.841,14.184Z" fill="#FBFBFB"/>
    <path d="M97.725,13.377C97.725,13.377 97.609,17.878 96.217,46.621C96.217,46.852 96.217,46.967 96.217,47.198C94.477,75.364 69.42,81.251 66.404,81.597C65.011,81.713 62.343,81.944 57.587,81.944C51.671,82.174 42.623,82.29 28.47,82.405C28.006,82.405 27.658,81.944 27.89,81.482C37.634,61.974 37.75,13.492 37.75,13.492L97.725,13.377Z" fill="#FFFFFF"/>
    <path d="M96.101,47.083C94.477,75.248 69.304,81.136 66.288,81.482C64.896,81.597 62.228,81.828 57.472,81.828C70,76.057 76.728,65.668 76.612,57.587C82.645,58.049 93.085,57.587 96.101,47.083Z" fill="#F4F4F4"/>
    <path d="M81.949,8.067C81.949,7.951 81.949,7.951 81.949,8.067L81.368,7.489C81.368,7.489 81.021,7.605 80.904,7.836H71.856C71.856,7.605 71.856,7.489 71.856,7.259C71.856,5.412 70.232,3.796 68.376,3.796C66.52,3.796 64.896,5.412 64.896,7.259C64.896,7.489 64.896,7.605 65.012,7.72H55.616C55.152,7.72 54.688,8.067 54.688,8.759V11.76C54.688,14.069 56.312,15.454 58.516,15.454H77.772C80.092,15.454 82.064,14.069 82.064,11.76V8.644C82.18,8.413 82.064,8.182 81.949,8.067Z" fill="#55575C"/>
    <path d="M81.601,8.067V11.068C81.601,11.299 81.601,11.414 81.601,11.645C81.253,13.607 79.628,15.223 77.54,15.223H58.168C56.079,15.223 54.456,13.607 54.107,11.645C54.107,11.414 54.107,11.299 54.107,11.068V8.067C54.107,7.605 54.456,7.028 55.035,7.028H64.548C64.548,6.797 64.548,6.681 64.548,6.566C64.548,4.719 66.172,3.103 68.028,3.103C69.884,3.103 71.508,4.719 71.508,6.566C71.508,6.797 71.508,6.912 71.508,7.028H81.02C81.253,7.143 81.601,7.489 81.601,8.067Z" fill="url(#grad1)"/>
    <path d="M67.796,8.182C68.724,8.182 69.42,7.489 69.42,6.566C69.42,5.643 68.724,4.951 67.796,4.951C66.868,4.951 66.172,5.643 66.172,6.566C66.172,7.489 66.868,8.182 67.796,8.182Z" fill="#F0EFEF"/>
    <path d="M78.819,10.838C79.281,10.838 79.628,10.492 79.628,10.031V9.105C79.628,8.644 79.281,8.297 78.819,8.297C78.357,8.297 78.011,8.644 78.011,9.105V10.031C78.011,10.492 78.357,10.838 78.819,10.838Z" fill="#FEFFFF"/>
    <path d="M75.671,10.838C76.132,10.838 76.48,10.492 76.48,10.031V9.105C76.48,8.644 76.132,8.297 75.671,8.297C75.209,8.297 74.862,8.644 74.862,9.105V10.031C74.862,10.492 75.209,10.838 75.671,10.838Z" fill="#FEFFFF"/>
    <path d="M72.524,10.838C72.985,10.838 73.332,10.492 73.332,10.031V9.105C73.332,8.644 72.985,8.297 72.524,8.297C72.062,8.297 71.715,8.644 71.715,9.105V10.031C71.715,10.492 72.062,10.838 72.524,10.838Z" fill="#FEFFFF"/>
    <path d="M69.42,10.838C69.881,10.838 70.228,10.492 70.228,10.031V9.105C70.228,8.644 69.881,8.297 69.42,8.297C68.958,8.297 68.611,8.644 68.611,9.105V10.031C68.611,10.492 68.958,10.838 69.42,10.838Z" fill="#FEFFFF"/>
    <path d="M66.172,10.838C66.633,10.838 66.981,10.492 66.981,10.031V9.105C66.981,8.644 66.633,8.297 66.172,8.297C65.71,8.297 65.364,8.644 65.364,9.105V10.031C65.364,10.492 65.71,10.838 66.172,10.838Z" fill="#FEFFFF"/>
    <path d="M63.024,10.838C63.485,10.838 63.833,10.492 63.833,10.031V9.105C63.833,8.644 63.485,8.297 63.024,8.297C62.562,8.297 62.216,8.644 62.216,9.105V10.031C62.216,10.492 62.562,10.838 63.024,10.838Z" fill="#FEFFFF"/>
    <path d="M59.876,10.838C60.338,10.838 60.685,10.492 60.685,10.031V9.105C60.685,8.644 60.338,8.297 59.876,8.297C59.414,8.297 59.068,8.644 59.068,9.105V10.031C59.068,10.492 59.414,10.838 59.876,10.838Z" fill="#FEFFFF"/>
    <path d="M56.73,10.838C57.191,10.838 57.538,10.492 57.538,10.031V9.105C57.538,8.644 57.191,8.297 56.73,8.297C56.268,8.297 55.921,8.644 55.921,9.105V10.031C55.921,10.492 56.268,10.838 56.73,10.838Z" fill="#FEFFFF"/>
    <defs>
        <linearGradient id="grad1" x1="56.376" y1="6.221" x2="80.556" y2="14.897" gradientUnits="userSpaceOnUse">
            <stop offset="0%" style="stop-color:#85868E;stop-opacity:1" />
            <stop offset="100%" style="stop-color:#55575C;stop-opacity:1" />
        </linearGradient>
    </defs>
</svg>
