<svg xmlns="http://www.w3.org/2000/svg" viewBox="0 0 104 104" width="104" height="104">
    <path d="M52.005,98.177L72.608,92.975C84.368,83.21 91.858,68.48 91.858,52C91.858,26.58 74.042,5.322 50.215,0.03C22.323,0.971 0,23.879 0,52C0,66.445 5.891,79.513 15.399,88.936L52.005,98.177Z" fill="#EBF1F5"/>
    <path d="M90.78,52C90.78,69.045 82.578,84.173 69.906,93.657L88.6,88.936C98.109,79.513 104.001,66.445 104.001,52C104.001,23.281 80.72,0 52.001,0C49.762,0 47.555,0.142 45.391,0.416C70.988,3.664 90.78,25.521 90.78,52Z" fill="#D8E1E8"/>
    <path d="M64.924,19.693C64.924,17.037 62.771,14.884 60.115,14.884H43.544C37.432,14.884 32.477,19.84 32.477,25.952V38.239H71.519V26.126C71.519,23.47 69.366,21.317 66.71,21.317H66.548C65.651,21.317 64.924,20.59 64.924,19.693Z" fill="#365E7D"/>
    <path d="M66.709,21.317H66.547C65.65,21.317 64.923,20.59 64.923,19.693C64.923,17.037 62.77,14.884 60.114,14.884H58.297V38.239H71.518V26.126C71.518,23.471 69.365,21.317 66.709,21.317Z" fill="#2B4D66"/>
    <path d="M86.339,75.634C85.067,74.379 83.495,73.408 81.709,72.843L67.513,68.348L52.005,67.803L36.49,68.348L22.293,72.843C17.491,74.363 14.227,78.82 14.227,83.858V87.736C23.324,97.35 36.053,103.492 50.217,103.97C66.087,100.445 79.29,89.837 86.339,75.634Z" fill="#394B59"/>
    <path d="M89.775,87.736V83.858C89.775,80.296 88.142,77.026 85.488,74.877C77.95,90.239 63.059,101.338 45.402,103.582C47.534,103.852 49.704,103.996 51.908,104C54.025,103.997 56.114,103.874 58.169,103.638C70.566,102.173 81.627,96.347 89.775,87.736Z" fill="#293742"/>
    <path d="M53.18,103.222C56.326,96.975 64.519,79.239 62.182,68.16L52.006,64.2L41.819,68.161C39.411,79.581 48.192,98.076 51.098,103.766C51.798,103.599 52.492,103.417 53.18,103.222Z" fill="#E4F6FF"/>
    <path d="M58.543,98.27L54.417,82.036H49.589L45.473,98.225L50.563,103.892C51.855,103.596 53.129,103.253 54.383,102.865L58.543,98.27Z" fill="#738694"/>
    <path d="M50.64,103.981C51.061,103.992 51.484,103.999 51.908,104C52.398,103.999 52.887,103.991 53.375,103.977L55.996,101.081C53.933,101.805 51.81,102.402 49.637,102.864L50.64,103.981Z" fill="#5C7080"/>
    <path d="M60.688,66.662V57.508H43.305V66.662C43.305,71.463 51.996,76.706 51.996,76.706C51.996,76.706 60.688,71.463 60.688,66.662Z" fill="#FFDDCE"/>
    <path d="M71.519,36.627H68.196C66.348,36.627 64.85,35.129 64.85,33.281V31.45C64.85,29.043 62.495,27.341 60.209,28.096C54.879,29.858 49.123,29.858 43.792,28.097L43.786,28.095C41.5,27.34 39.145,29.042 39.145,31.449V33.281C39.145,35.129 37.647,36.627 35.799,36.627H32.477V42.099C32.477,43.497 33.61,44.631 35.008,44.631C35.45,44.631 35.808,44.976 35.836,45.417C36.37,53.881 43.4,60.581 51.998,60.581C60.596,60.581 67.626,53.881 68.16,45.417C68.187,44.977 68.546,44.631 68.988,44.631C70.386,44.631 71.519,43.497 71.519,42.099V36.627H71.519Z" fill="#FFDDCE"/>
    <path d="M68.197,36.627C66.349,36.627 64.851,35.129 64.851,33.281V31.45C64.851,29.043 62.496,27.341 60.21,28.096C59.579,28.305 58.942,28.487 58.3,28.646V46.718C58.211,52.598 54.989,57.716 50.23,60.482C50.812,60.545 51.401,60.581 51.999,60.581C60.597,60.581 67.627,53.88 68.16,45.416C68.188,44.976 68.547,44.631 68.989,44.631C70.387,44.631 71.52,43.497 71.52,42.099V36.627H68.197V36.627Z" fill="#FFCBBE"/>
    <path d="M43.305,64.2L36.488,69.738L43.637,78.577C44.506,79.424 45.875,79.476 46.806,78.698L52.182,74.207L43.305,64.2Z" fill="#F4FBFF"/>
    <path d="M60.693,64.2L52.184,74.207L57.236,78.527C58.162,79.318 59.537,79.279 60.415,78.435L67.512,69.738L60.693,64.2Z" fill="#F4FBFF"/>
    <path d="M43.308,64.2L33.303,69.115C32.541,69.489 32.235,70.416 32.624,71.17L34.584,74.971C35.092,75.955 34.905,77.155 34.121,77.938C33.717,78.341 33.28,78.777 32.901,79.156C32.223,79.832 31.979,80.832 32.278,81.743C34.645,88.957 46.035,99.989 50.345,103.981C50.635,103.988 50.925,103.994 51.217,103.997C48.091,97.917 37.014,74.817 43.308,64.2Z" fill="#293742"/>
    <path d="M69.879,77.938C69.094,77.155 68.907,75.955 69.415,74.97L71.375,71.17C71.764,70.416 71.458,69.489 70.697,69.115L60.691,64.2C66.984,74.814 55.915,97.904 52.785,103.992C53.079,103.987 53.373,103.98 53.666,103.97C57.985,99.969 69.357,88.951 71.721,81.743C72.02,80.833 71.776,79.833 71.098,79.156C70.719,78.777 70.282,78.341 69.879,77.938Z" fill="#293742"/>
    <path d="M52.184,74.207L46.891,78.628L49.588,82.037H54.415L57.113,78.427L52.184,74.207Z" fill="#5C7080"/>
</svg>
